<svg version="1.1" width="157" height="157" viewBox="-1 -1 157 157" xmlns="http://www.w3.org/2000/svg" xmlns:xlink="http://www.w3.org/1999/xlink">
  <!-- Exported by Scratch - http://scratch.mit.edu/ -->
  <g id="ID0.8933116057887673" transform="matrix(1, 0, 0, 1, -163, -103)">
    <path id="ID0.5014553447254002" fill="none" stroke="#FF0000" stroke-width="4" d="M 262.500 111 C 283.330 111 302.205 119.460 315.872 133.128 C 329.540 146.795 338 165.670 338 186.500 C 338 207.330 329.540 226.205 315.872 239.872 C 302.205 253.540 283.330 262 262.500 262 C 241.670 262 222.795 253.540 209.128 239.872 C 195.460 226.205 187 207.330 187 186.500 C 187 165.670 195.460 146.795 209.128 133.128 C 222.795 119.460 241.670 111 262.500 111 Z " transform="matrix(1, 0, 0, 1, -22, -6)"/>
    <path id="ID0.49290607450529933" fill="#FF0000" stroke="none" d="M 212 142 C 215.587 142 218.837 143.457 221.190 145.810 C 223.543 148.163 225 151.413 225 155 C 225 158.587 223.543 161.837 221.190 164.190 C 218.837 166.543 215.587 168 212 168 C 208.413 168 205.163 166.543 202.810 164.190 C 200.457 161.837 199 158.587 199 155 C 199 151.413 200.457 148.163 202.810 145.810 C 205.163 143.457 208.413 142 212 142 Z " transform="matrix(1, 0, 0, 1, -2, 1)"/>
    <path id="ID0.49290607450529933" fill="#FF0000" stroke="none" d="M 212 142 C 215.587 142 218.837 143.457 221.190 145.810 C 223.543 148.163 225 151.413 225 155 C 225 158.587 223.543 161.837 221.190 164.190 C 218.837 166.543 215.587 168 212 168 C 208.413 168 205.163 166.543 202.810 164.190 C 200.457 161.837 199 158.587 199 155 C 199 151.413 200.457 148.163 202.810 145.810 C 205.163 143.457 208.413 142 212 142 Z " transform="matrix(1, 0, 0, 1, 55, 1)"/>
    <text id="ID0.8931320956908166" fill="#FF0000" x="150.75" y="276" text-anchor="start" font-family="Helvetica" font-size="22" transform="matrix(1, 0, 0, 1, 230.5, 165.65)">/\</text>
    <path id="ID0.26891777431592345" fill="none" stroke="#FF0000" stroke-width="11" stroke-linecap="round" d="M 196.500 198.250 C 196.500 198.250 206.351 210.214 212.750 214.500 C 218.276 218.237 224.438 221.399 231 222.750 C 237.686 224.135 244.819 224.131 251.500 223 C 255.725 222.285 259.533 219.882 263.250 217.750 C 268.188 214.919 272.841 211.707 277 208 C 280.879 204.757 287.250 197 287.250 197 " transform="matrix(1, 0, 0, 1, -2, 1)"/>
  </g>
</svg>