<?xml version="1.0"?>
<svg version="1.1" xmlns="http://www.w3.org/2000/svg" xmlns:xlink="http://www.w3.org/1999/xlink" width="482" height="362">
    <desc iVinci="yes" version="4.6" gridStep="20" showGrid="no" snapToGrid="no" codePlatform="0"/>
    <g id="Layer1" name="Layer 1" opacity="1">
        <g id="Shape1">
            <desc shapeID="1" type="0" basicInfo-basicType="0" basicInfo-roundedRectRadius="12" basicInfo-polygonSides="6" basicInfo-starPoints="5" bounding="rect(-240,-180,480,360)" text="" font-familyName="" font-pixelSize="20" font-bold="0" font-underline="0" font-alignment="1" strokeStyle="0" markerStart="0" markerEnd="0" shadowEnabled="0" shadowOffsetX="0" shadowOffsetY="2" shadowBlur="4" shadowOpacity="160" blurEnabled="0" blurRadius="4" transform="matrix(1.00417,0,0,1.01667,241,183)" pers-center="0,0" pers-size="0,0" pers-start="0,0" pers-end="0,0" locked="0" mesh="" flag=""/>
            <path id="shapePath1" d="M-1.52588e-05,0 L482,0 L482,366 L-1.52588e-05,366 L-1.52588e-05,0 Z" style="stroke:none;fill-rule:nonzero;fill:#003fff;fill-opacity:1;"/>
        </g>
        <g id="Shape2">
            <desc shapeID="2" type="0" basicInfo-basicType="0" basicInfo-roundedRectRadius="12" basicInfo-polygonSides="6" basicInfo-starPoints="5" bounding="rect(-217.732,-174.381,435.465,348.761)" text="" font-familyName="" font-pixelSize="20" font-bold="0" font-underline="0" font-alignment="1" strokeStyle="0" markerStart="0" markerEnd="0" shadowEnabled="0" shadowOffsetX="0" shadowOffsetY="2" shadowBlur="4" shadowOpacity="160" blurEnabled="0" blurRadius="4" transform="matrix(1,0,0,1,239.516,187.005)" pers-center="0,0" pers-size="0,0" pers-start="0,0" pers-end="0,0" locked="0" mesh="" flag=""/>
            <path id="shapePath2" d="M239.516,12.6242 C299.587,12.6242 354.02,32.164 393.434,63.7327 C432.851,95.2991 457.248,138.894 457.248,187.005 C457.248,235.115 432.851,278.711 393.434,310.277 C354.02,341.846 299.587,361.385 239.516,361.385 C179.445,361.385 125.012,341.846 85.5981,310.277 C46.1814,278.711 21.7838,235.115 21.7838,187.005 C21.7838,138.894 46.1814,95.2991 85.5981,63.7327 C125.012,32.164 179.445,12.6242 239.516,12.6242 Z" style="stroke:#cc0000;stroke-opacity:1;stroke-width:4;stroke-linejoin:miter;stroke-miterlimit:2;stroke-linecap:butt;fill:none;"/>
        </g>
        <g id="Shape3">
            <desc shapeID="3" type="0" basicInfo-basicType="0" basicInfo-roundedRectRadius="12" basicInfo-polygonSides="6" basicInfo-starPoints="5" bounding="rect(-37.4903,-30.0258,74.9806,60.0516)" text="" font-familyName="" font-pixelSize="20" font-bold="0" font-underline="0" font-alignment="1" strokeStyle="0" markerStart="0" markerEnd="0" shadowEnabled="0" shadowOffsetX="0" shadowOffsetY="2" shadowBlur="4" shadowOpacity="160" blurEnabled="0" blurRadius="4" transform="matrix(1,0,0,1,151.581,130.45)" pers-center="0,0" pers-size="0,0" pers-start="0,0" pers-end="0,0" locked="0" mesh="" flag=""/>
            <path id="shapePath3" d="M151.581,100.424 C161.925,100.424 171.298,103.789 178.083,109.224 C184.869,114.659 189.071,122.165 189.071,130.45 C189.071,138.735 184.869,146.241 178.083,151.676 C171.298,157.111 161.925,160.476 151.581,160.476 C141.236,160.476 131.864,157.111 125.078,151.676 C118.292,146.241 114.09,138.735 114.09,130.45 C114.09,122.165 118.292,114.659 125.078,109.224 C131.864,103.789 141.236,100.424 151.581,100.424 Z" style="stroke:none;fill-rule:nonzero;fill:#cc0000;fill-opacity:1;"/>
        </g>
        <g id="Shape4">
            <desc shapeID="4" type="0" basicInfo-basicType="0" basicInfo-roundedRectRadius="12" basicInfo-polygonSides="6" basicInfo-starPoints="5" bounding="rect(-37.4903,-30.0258,74.9806,60.0516)" text="" font-familyName="" font-pixelSize="20" font-bold="0" font-underline="0" font-alignment="1" strokeStyle="0" markerStart="0" markerEnd="0" shadowEnabled="0" shadowOffsetX="0" shadowOffsetY="2" shadowBlur="4" shadowOpacity="160" blurEnabled="0" blurRadius="4" transform="matrix(1,0,0,1,315.931,130.45)" pers-center="0,0" pers-size="0,0" pers-start="0,0" pers-end="0,0" locked="0" mesh="" flag=""/>
            <path id="shapePath4" d="M315.931,100.424 C326.275,100.424 335.648,103.789 342.433,109.224 C349.219,114.659 353.421,122.165 353.421,130.45 C353.421,138.735 349.219,146.241 342.433,151.676 C335.648,157.111 326.275,160.476 315.931,160.476 C305.586,160.476 296.214,157.111 289.428,151.676 C282.642,146.241 278.44,138.735 278.44,130.45 C278.44,122.165 282.642,114.659 289.428,109.224 C296.214,103.789 305.586,100.424 315.931,100.424 Z" style="stroke:none;fill-rule:nonzero;fill:#cc0000;fill-opacity:1;"/>
        </g>
        <g id="Shape5">
            <desc shapeID="5" type="0" basicInfo-basicType="0" basicInfo-roundedRectRadius="12" basicInfo-polygonSides="6" basicInfo-starPoints="5" bounding="rect(-19.0051,-18.2237,38.0101,36.4474)" text="" font-familyName="" font-pixelSize="20" font-bold="0" font-underline="0" font-alignment="1" strokeStyle="0" markerStart="0" markerEnd="0" shadowEnabled="0" shadowOffsetX="0" shadowOffsetY="2" shadowBlur="4" shadowOpacity="160" blurEnabled="0" blurRadius="4" transform="matrix(1,0,0,1,234.995,186)" pers-center="0,0" pers-size="0,0" pers-start="0,0" pers-end="0,0" locked="0" mesh="" flag=""/>
            <path id="shapePath5" d="M230.426,167.776 L235.135,167.776 L220.699,204.224 L215.99,204.224 L230.426,167.776 M236.311,167.776 L254,204.224 L249.167,204.224 L231.478,167.776 L236.311,167.776 Z" style="stroke:#000000;stroke-opacity:1;stroke-width:0;stroke-linejoin:bevel;stroke-miterlimit:2;stroke-linecap:square;fill-rule:nonzero;fill:#cc0000;fill-opacity:1;"/>
        </g>
        <g id="Shape6">
            <desc shapeID="6" type="0" basicInfo-basicType="0" basicInfo-roundedRectRadius="12" basicInfo-polygonSides="6" basicInfo-starPoints="5" bounding="rect(-130.856,-30.9736,261.711,61.9473)" text="" font-familyName="" font-pixelSize="20" font-bold="0" font-underline="0" font-alignment="1" strokeStyle="0" markerStart="0" markerEnd="0" shadowEnabled="0" shadowOffsetX="0" shadowOffsetY="2" shadowBlur="4" shadowOpacity="160" blurEnabled="0" blurRadius="4" transform="matrix(1,0,0,1,237.736,258.43)" pers-center="0,0" pers-size="0,0" pers-start="0,0" pers-end="0,0" locked="0" mesh="" flag=""/>
            <path id="shapePath6" d="M106.881,230.343 C106.881,230.343 135.29,257.976 153.744,267.876 C169.68,276.507 187.45,283.81 206.374,286.931 C225.656,290.129 246.226,290.12 265.494,287.508 C277.678,285.857 288.66,280.306 299.379,275.382 C313.62,268.844 327.038,261.425 339.032,252.863 C350.219,245.373 368.592,227.456 368.592,227.456 " style="stroke:none;fill-rule:nonzero;fill:#cc0000;fill-opacity:1;"/>
        </g>
        <g id="Shape7">
            <desc shapeID="7" type="0" basicInfo-basicType="0" basicInfo-roundedRectRadius="12" basicInfo-polygonSides="6" basicInfo-starPoints="5" bounding="rect(-27.775,-8.31445,55.55,16.6289)" text="" font-familyName="" font-pixelSize="20" font-bold="0" font-underline="0" font-alignment="1" strokeStyle="0" markerStart="0" markerEnd="0" shadowEnabled="0" shadowOffsetX="0" shadowOffsetY="2" shadowBlur="4" shadowOpacity="160" blurEnabled="0" blurRadius="4" transform="matrix(1,0,0,1.18041,234.995,91.4668)" pers-center="0,0" pers-size="0,0" pers-start="0,0" pers-end="0,0" locked="0" mesh="" flag=""/>
            <path id="shapePath7" d="M219.23,83.5163 C220.333,84.7589 220.945,86.1707 221.067,87.7515 L218.983,87.7515 C218.746,86.5511 218.275,85.6001 217.57,84.8984 C216.865,84.1968 215.875,83.846 214.6,83.846 C213.046,83.846 211.791,84.4905 210.835,85.7797 C209.879,87.0688 209.401,89.0449 209.401,91.7077 C209.401,93.8887 209.832,95.6576 210.695,97.0143 C211.558,98.3711 212.845,99.0495 214.557,99.0495 C216.132,99.0495 217.332,98.3352 218.156,96.9066 C218.592,96.1542 218.918,95.1651 219.133,93.9394 L221.217,93.9394 C221.031,95.9006 220.415,97.5448 219.369,98.872 C218.116,100.47 216.426,101.269 214.299,101.269 C212.466,101.269 210.926,100.613 209.68,99.3031 C208.04,97.5701 207.22,94.8946 207.22,91.2766 C207.22,88.5292 207.836,86.2763 209.068,84.518 C210.4,82.6075 212.237,81.6523 214.578,81.6523 C216.576,81.6523 218.127,82.2736 219.23,83.5163 M223.61,82.1595 L225.543,82.1595 L225.543,100.787 L223.61,100.787 L223.61,82.1595 M235.643,97.5976 C236.119,96.4522 236.357,95.1778 236.357,93.7746 C236.357,92.5065 236.186,91.4752 235.842,90.6806 C235.298,89.4295 234.359,88.8039 233.027,88.8039 C231.846,88.8039 230.986,89.3365 230.449,90.4016 C229.912,91.4668 229.644,92.7517 229.644,94.2564 C229.644,95.7019 229.912,96.9066 230.449,97.8703 C230.986,98.8339 231.839,99.3158 233.006,99.3158 C234.288,99.3158 235.167,98.7431 235.643,97.5976 M236.841,88.563 C237.865,89.7296 238.377,91.4456 238.377,93.7112 C238.377,95.9006 237.926,97.7096 237.024,99.1383 C236.121,100.567 234.721,101.281 232.823,101.281 C231.241,101.281 229.984,100.649 229.053,99.3855 C228.122,98.1217 227.656,96.4247 227.656,94.2944 C227.656,92.012 228.147,90.1945 229.128,88.842 C230.109,87.4894 231.427,86.8131 233.081,86.8131 C234.564,86.8131 235.817,87.3964 236.841,88.563 M240.675,87.2062 L242.511,87.2062 L242.511,89.1336 C243.056,88.339 243.632,87.7684 244.241,87.4218 C244.85,87.0752 245.526,86.9019 246.271,86.9019 C247.904,86.9019 249.007,87.574 249.58,88.9181 C249.895,89.6535 250.052,90.706 250.052,92.0754 L250.052,100.787 L248.087,100.787 L248.087,92.2276 C248.087,91.3991 247.983,90.7313 247.775,90.2241 C247.431,89.3788 246.808,88.9561 245.906,88.9561 C245.448,88.9561 245.072,89.011 244.778,89.1209 C244.248,89.3069 243.783,89.6789 243.382,90.2368 C243.059,90.6848 242.85,91.1476 242.753,91.6253 C242.656,92.1029 242.608,92.7855 242.608,93.6731 L242.608,100.787 L240.675,100.787 L240.675,87.2062 M260.074,87.5803 C260.84,88.0325 261.424,88.6179 261.825,89.3365 C262.211,90.0212 262.469,90.8201 262.598,91.733 C262.713,92.3586 262.77,93.3561 262.77,94.7256 L254.337,94.7256 C254.373,96.1035 254.649,97.2088 255.164,98.0414 C255.68,98.8741 256.479,99.2904 257.56,99.2904 C258.57,99.2904 259.375,98.8973 259.977,98.1112 C260.321,97.6547 260.564,97.1263 260.707,96.5262 L262.609,96.5262 C262.559,97.0249 262.392,97.5807 262.109,98.1936 C261.826,98.8065 261.51,99.3073 261.159,99.6962 C260.571,100.372 259.844,100.829 258.978,101.066 C258.512,101.201 257.986,101.269 257.399,101.269 C255.967,101.269 254.753,100.654 253.757,99.4236 C252.762,98.1936 252.264,96.4712 252.264,94.2564 C252.264,92.0754 252.765,90.3044 253.768,88.9434 C254.771,87.5824 256.081,86.9019 257.7,86.9019 C258.516,86.9019 259.307,87.128 260.074,87.5803 M260.783,92.9123 C260.704,91.9233 260.521,91.1328 260.235,90.5411 C259.705,89.4422 258.82,88.8927 257.581,88.8927 C256.693,88.8927 255.949,89.271 255.347,90.0276 C254.746,90.7841 254.427,91.7457 254.391,92.9123 L260.783,92.9123 Z" style="stroke:#323232;stroke-opacity:1;stroke-width:1;stroke-linejoin:miter;stroke-miterlimit:2;stroke-linecap:round;fill-rule:nonzero;fill:#cc0000;fill-opacity:1;"/>
        </g>
        <g id="Shape8">
            <desc shapeID="8" type="2" basicInfo-basicType="0" basicInfo-roundedRectRadius="12" basicInfo-polygonSides="6" basicInfo-starPoints="5" bounding="rect(-235,-23,470,46)" text="Rummikub" font-familyName="HanziPen SC" font-pixelSize="100" font-bold="0" font-underline="0" font-alignment="1" strokeStyle="0" markerStart="0" markerEnd="0" shadowEnabled="0" shadowOffsetX="0" shadowOffsetY="2" shadowBlur="4" shadowOpacity="160" blurEnabled="0" blurRadius="4" transform="matrix(1,0,0,1,241.037,42.1668)" pers-center="0,0" pers-size="0,0" pers-start="0,0" pers-end="0,0" locked="0" mesh="" flag=""/>
            <path id="shapePath8" d="M80.0156,22.1668 C80.0156,17.7668 78.4156,13.7668 75.4156,10.2668 C72.2156,6.86677 68.5156,5.06677 64.3156,5.06677 C60.3156,5.06677 56.0156,6.46677 51.2156,9.06677 C46.9156,11.5668 43.1156,14.5668 39.9156,18.0668 C38.3156,19.8668 37.5156,21.4668 37.5156,22.6668 C37.5156,24.6668 38.8156,25.9668 41.4156,26.5668 C39.9156,39.9668 39.1156,47.8668 39.0156,50.0668 C35.8156,50.4668 34.2156,51.6668 34.2156,53.5668 C34.2156,55.5668 35.4156,56.4668 38.0156,56.4668 L38.8156,56.4668 C38.8156,66.7668 39.2156,74.0668 40.0156,78.2668 C40.4156,80.3668 41.4156,81.4668 43.0156,81.4668 C44.8156,81.4668 45.7156,80.2668 45.7156,78.0668 C45.7156,78.0668 45.5156,76.0668 45.1156,72.0668 C44.7156,68.7668 44.5156,64.4668 44.3156,59.0668 C59.6156,65.8668 68.5156,72.4668 71.0156,78.6668 C71.3156,81.0668 72.2156,82.3668 73.8156,82.3668 C75.6156,82.3668 76.6156,81.2668 76.6156,79.0668 C76.6156,71.8668 67.3156,63.4668 48.9156,54.0668 C53.9156,52.1668 58.9156,49.5668 63.8156,46.1668 C74.6156,38.5668 80.0156,30.5668 80.0156,22.1668 M74.8156,21.9668 C74.8156,28.9668 69.7156,35.7668 59.5156,42.3668 C54.2156,45.8668 49.2156,48.1668 44.4156,49.2668 C45.4156,36.5668 46.2156,26.5668 46.9156,19.2668 C53.1156,14.4668 59.2156,12.0668 65.3156,12.0668 C67.6156,12.0668 69.8156,13.0668 71.8156,14.9668 C73.8156,16.9668 74.8156,19.3668 74.8156,21.9668 M129.316,43.6668 C129.316,41.8668 128.416,40.8668 126.716,40.8668 C125.916,40.8668 125.216,41.4668 124.516,42.6668 C120.116,50.1668 115.816,56.4668 111.416,61.6668 C105.416,68.8668 100.416,72.3668 96.5156,72.3668 C95.5156,72.3668 95.0156,71.6668 95.0156,70.2668 C95.0156,69.6668 95.2156,67.9668 95.7156,65.1668 C97.6156,54.3668 98.6156,47.8668 98.6156,45.6668 C98.6156,42.0668 97.7156,40.2668 96.1156,40.2668 C95.3156,40.2668 94.6156,40.6668 94.0156,41.3668 C93.4156,42.1668 93.1156,42.8668 93.1156,43.6668 C93.1156,43.8668 93.1156,44.2668 93.2156,44.6668 C93.2156,45.2668 93.2156,45.5668 93.2156,45.7668 C93.2156,48.5668 92.5156,53.3668 91.2156,60.1668 C89.8156,66.5668 89.2156,70.7668 89.2156,72.6668 C89.2156,74.6668 89.9156,76.2668 91.3156,77.4668 C92.6156,78.6668 94.4156,79.2668 96.6156,79.2668 C101.616,79.2668 109.616,72.7668 120.616,59.7668 C119.616,64.8668 119.016,70.2668 118.816,75.9668 C118.316,76.6668 118.116,77.3668 118.116,78.0668 C118.116,78.8668 118.516,79.4668 119.316,80.0668 C120.016,80.5668 120.816,80.8668 121.616,80.8668 C124.016,80.8668 125.316,79.4668 125.316,76.8668 C125.316,76.6668 125.116,75.7668 124.916,74.1668 C124.716,72.7668 124.616,71.7668 124.616,71.1668 C124.616,70.3668 124.716,68.8668 125.016,66.6668 C126.316,56.6668 127.516,50.0668 128.616,46.9668 C129.016,45.8668 129.316,44.7668 129.316,43.6668 M204.212,74.7668 C204.212,74.3668 203.712,73.6668 202.912,72.4668 C201.512,70.7668 200.512,67.7668 199.712,63.4668 C199.012,59.9668 198.712,56.7668 198.712,53.7668 C198.712,49.1668 197.812,46.7668 196.112,46.7668 C191.812,46.7668 184.512,54.0668 174.212,68.4668 C172.612,64.4668 171.812,58.0668 171.812,49.2668 C171.812,44.8668 171.012,42.5668 169.512,42.5668 C166.512,42.5668 158.812,49.2668 146.212,62.4668 C146.912,59.0668 147.612,55.6668 148.412,52.1668 C149.312,47.9668 149.812,44.4668 149.812,41.8668 C149.812,36.0668 148.612,33.1668 146.312,33.1668 C145.312,33.1668 144.412,33.5668 143.512,34.2668 C142.312,35.1668 141.612,36.1668 141.412,37.3668 C142.512,39.9668 143.112,42.0668 143.112,43.8668 C143.112,46.4668 142.212,51.8668 140.612,59.8668 C139.212,66.5668 138.512,71.5668 138.512,74.7668 C138.512,79.3668 139.712,81.7668 142.312,81.7668 C143.712,81.7668 144.912,79.9668 145.712,76.4668 C146.712,72.2668 149.412,67.6668 154.012,62.4668 C157.612,58.2668 161.412,54.7668 165.312,52.1668 C165.412,61.0668 166.512,67.9668 168.712,72.8668 C170.012,75.9668 171.412,77.4668 173.012,77.4668 C174.512,77.4668 176.212,76.0668 178.012,73.1668 C182.212,66.3668 187.012,60.3668 192.212,55.0668 C193.812,70.7668 196.412,78.5668 199.912,78.5668 C202.712,78.5668 204.212,77.3668 204.212,74.7668 M279.103,74.7668 C279.103,74.3668 278.603,73.6668 277.803,72.4668 C276.403,70.7668 275.403,67.7668 274.603,63.4668 C273.903,59.9668 273.603,56.7668 273.603,53.7668 C273.603,49.1668 272.703,46.7668 271.003,46.7668 C266.703,46.7668 259.403,54.0668 249.103,68.4668 C247.503,64.4668 246.703,58.0668 246.703,49.2668 C246.703,44.8668 245.903,42.5668 244.403,42.5668 C241.403,42.5668 233.703,49.2668 221.103,62.4668 C221.803,59.0668 222.503,55.6668 223.303,52.1668 C224.203,47.9668 224.703,44.4668 224.703,41.8668 C224.703,36.0668 223.503,33.1668 221.203,33.1668 C220.203,33.1668 219.303,33.5668 218.403,34.2668 C217.203,35.1668 216.503,36.1668 216.303,37.3668 C217.403,39.9668 218.003,42.0668 218.003,43.8668 C218.003,46.4668 217.103,51.8668 215.503,59.8668 C214.103,66.5668 213.403,71.5668 213.403,74.7668 C213.403,79.3668 214.603,81.7668 217.203,81.7668 C218.603,81.7668 219.803,79.9668 220.603,76.4668 C221.603,72.2668 224.303,67.6668 228.903,62.4668 C232.503,58.2668 236.303,54.7668 240.203,52.1668 C240.303,61.0668 241.403,67.9668 243.603,72.8668 C244.903,75.9668 246.303,77.4668 247.903,77.4668 C249.403,77.4668 251.103,76.0668 252.903,73.1668 C257.103,66.3668 261.903,60.3668 267.103,55.0668 C268.703,70.7668 271.303,78.5668 274.803,78.5668 C277.603,78.5668 279.103,77.3668 279.103,74.7668 M305.694,7.56677 C305.694,3.36677 303.994,1.16677 300.694,0.766769 C298.094,1.66677 296.694,3.16677 296.494,5.36677 C296.494,6.06677 296.594,6.66677 296.594,7.26677 C296.594,10.7668 298.494,12.8668 302.394,13.5668 C304.594,13.3668 305.694,11.3668 305.694,7.56677 M300.294,45.2668 C300.294,42.0668 298.394,40.2668 294.694,40.0668 C293.694,40.6668 293.194,41.4668 293.194,42.3668 C293.194,42.6668 293.294,43.4668 293.494,44.6668 C290.694,58.4668 289.394,66.5668 289.394,69.1668 C289.394,72.3668 289.894,74.8668 290.894,76.8668 C292.194,79.3668 293.594,80.6668 295.194,80.6668 C296.394,80.6668 297.094,79.9668 297.094,78.5668 C297.094,76.9668 296.394,75.3668 295.094,73.9668 C295.094,68.7668 296.194,61.4668 298.494,52.0668 C299.194,49.4668 299.794,47.2668 300.294,45.2668 M352.688,34.7668 C352.688,32.7668 351.487,31.6668 349.188,31.6668 C348.887,31.6668 348.188,32.1668 346.987,33.0668 C341.487,37.0668 332.987,40.5668 321.387,43.5668 C322.587,32.2668 323.987,21.5668 325.688,11.3668 C326.287,8.16677 326.587,6.56677 326.587,6.46677 C326.587,4.66677 325.487,3.66677 323.487,3.66677 C321.787,3.66677 320.787,4.76677 320.387,6.86677 C318.787,15.2668 317.387,24.7668 316.387,35.5668 C315.188,46.3668 314.587,55.3668 314.587,62.4668 C314.587,62.8668 314.587,63.4668 314.688,64.2668 C314.688,65.1668 314.787,65.6668 314.787,65.6668 C314.787,65.8668 314.688,66.2668 314.688,66.7668 C314.587,67.2668 314.587,67.5668 314.587,67.7668 C314.087,68.4668 313.887,69.2668 313.887,70.2668 C313.887,72.0668 314.188,73.6668 314.787,75.2668 C315.587,77.2668 316.587,78.1668 317.887,78.1668 C319.787,78.1668 320.787,76.8668 320.787,74.0668 C320.787,73.4668 320.688,70.6668 320.688,65.4668 C320.587,59.6668 320.587,56.2668 320.587,55.3668 C327.787,63.1668 334.387,69.9668 340.287,75.8668 C342.887,78.4668 344.587,79.7668 345.587,79.7668 C347.787,79.7668 348.887,78.6668 348.887,76.4668 C348.887,75.7668 348.587,75.1668 348.087,74.5668 C345.487,71.9668 343.387,69.8668 341.987,68.4668 C333.987,60.4668 327.987,54.1668 323.987,49.7668 C332.587,47.4668 339.087,45.1668 343.688,42.8668 C349.688,39.8668 352.688,37.1668 352.688,34.7668 M400.487,43.6668 C400.487,41.8668 399.587,40.8668 397.888,40.8668 C397.087,40.8668 396.388,41.4668 395.688,42.6668 C391.287,50.1668 386.987,56.4668 382.587,61.6668 C376.587,68.8668 371.587,72.3668 367.688,72.3668 C366.688,72.3668 366.188,71.6668 366.188,70.2668 C366.188,69.6668 366.387,67.9668 366.887,65.1668 C368.787,54.3668 369.787,47.8668 369.787,45.6668 C369.787,42.0668 368.887,40.2668 367.287,40.2668 C366.487,40.2668 365.787,40.6668 365.188,41.3668 C364.587,42.1668 364.287,42.8668 364.287,43.6668 C364.287,43.8668 364.287,44.2668 364.387,44.6668 C364.387,45.2668 364.387,45.5668 364.387,45.7668 C364.387,48.5668 363.688,53.3668 362.387,60.1668 C360.987,66.5668 360.387,70.7668 360.387,72.6668 C360.387,74.6668 361.087,76.2668 362.487,77.4668 C363.787,78.6668 365.587,79.2668 367.787,79.2668 C372.787,79.2668 380.787,72.7668 391.787,59.7668 C390.787,64.8668 390.188,70.2668 389.987,75.9668 C389.487,76.6668 389.287,77.3668 389.287,78.0668 C389.287,78.8668 389.688,79.4668 390.487,80.0668 C391.188,80.5668 391.987,80.8668 392.787,80.8668 C395.188,80.8668 396.487,79.4668 396.487,76.8668 C396.487,76.6668 396.287,75.7668 396.087,74.1668 C395.888,72.7668 395.787,71.7668 395.787,71.1668 C395.787,70.3668 395.888,68.8668 396.188,66.6668 C397.487,56.6668 398.688,50.0668 399.787,46.9668 C400.188,45.8668 400.487,44.7668 400.487,43.6668 M447.784,54.9668 C447.784,51.5668 446.884,48.7668 445.084,46.5668 C443.284,44.3668 440.684,43.2668 437.484,43.2668 C431.884,43.2668 425.284,48.1668 417.484,57.8668 C418.084,42.4668 418.984,30.6668 420.384,22.3668 C421.184,21.9668 421.884,21.1668 422.384,19.9668 C422.784,18.9668 423.284,16.8668 423.784,13.8668 C424.284,11.2668 424.584,9.26677 424.584,8.06677 C424.584,5.16677 423.484,3.66677 421.284,3.66677 C419.384,3.66677 417.884,6.26677 416.884,11.3668 C413.484,28.0668 411.884,44.9668 411.884,62.0668 C411.884,66.8668 412.084,71.4668 412.484,75.8668 C410.784,76.8668 409.884,77.9668 409.684,79.1668 C410.284,81.3668 411.784,82.4668 414.284,82.4668 C415.884,82.4668 418.284,81.8668 421.684,80.8668 C424.884,79.8668 427.884,78.5668 430.584,77.0668 C435.584,74.2668 439.584,70.9668 442.784,67.0668 C446.084,62.8668 447.784,58.8668 447.784,54.9668 M442.084,55.0668 C442.084,59.3668 439.184,63.6668 433.584,67.9668 C428.584,71.7668 423.584,74.3668 418.384,75.5668 C418.184,73.5668 418.184,71.8668 418.184,70.4668 C418.184,69.1668 418.584,67.6668 419.384,66.0668 C421.984,61.0668 425.484,56.8668 429.984,53.2668 C432.784,50.9668 435.184,49.7668 436.984,49.7668 C440.384,49.7668 442.084,51.5668 442.084,55.0668 Z" style="stroke:none;fill-rule:nonzero;fill:#ff1700;fill-opacity:1;"/>
        </g>
    </g>
</svg>
