<svg version="1.1" width="56" height="124" viewBox="-1 1 56 124" xmlns="http://www.w3.org/2000/svg" xmlns:xlink="http://www.w3.org/1999/xlink">
  <!-- Exported by Scratch - http://scratch.mit.edu/ -->
  <path id="ID0.46974487602710724" fill="#FF6161" stroke="#000000" stroke-width="2" stroke-linecap="round" d="M 211.400 146.900 L 195.400 146.150 L 195.600 184.100 C 195.600 187.250 195.600 185.750 195.500 186.550 C 195.500 187.250 195.300 188 195.400 188.650 C 195.500 189.150 195.700 189.500 195.800 189.900 C 195.900 190.350 195.800 190.850 195.900 191.250 C 196 191.950 196 192.800 196.600 193.200 C 197.100 193.600 198.300 193.850 198.500 193.100 C 199.300 190.300 198.800 184.100 199.200 184.300 C 199.200 184.300 198.900 186.600 199 187.700 C 199 188.400 199.200 189.100 199.500 189.700 C 199.700 190.350 200 191 200.500 191.450 C 201 192 201.600 192.800 202.300 192.600 C 202.900 192.450 203 191.400 203.200 190.700 C 203.500 189.400 203.500 188.050 203.700 186.700 C 203.700 186 204 184.600 203.800 184.600 C 203.800 184.600 204.200 187.500 204.200 188.900 C 204.100 189.700 203.600 190.500 203.800 191.200 C 203.900 191.800 204.300 192.500 205 192.700 C 205.300 192.800 205.800 192.300 206 191.900 C 206.400 191.400 206.355 190.571 206.500 189.900 C 206.852 188.275 207.143 185.667 207.250 185 C 207.487 184.593 207.266 186.596 207.300 187.400 C 207.368 188.971 207 190.700 207.800 192.100 C 208.100 192.700 209.300 192.300 209.800 191.800 C 210.300 191.300 210.400 189.700 210.500 189.100 C 210.500 189.100 210.700 189.400 210.800 189.600 C 210.700 189.700 210.300 190.300 210.500 189.800 C 211.200 188 211.200 185.300 212.700 184.300 C 213.400 183.800 214 185.700 214.700 186.300 C 215.700 187.200 216.600 188.800 217.900 188.900 C 218.500 189 218.500 187.700 218.700 186.900 C 218.800 186.300 218.700 185.600 218.500 184.900 C 218.300 184.200 218.100 183.500 217.700 182.900 C 217.200 182.400 216.500 182.100 215.900 181.700 C 215.200 181.300 214.400 181.200 214 180.600 C 213.300 179.400 212.971 183.949 212.700 176.700 L 211.500 147.250 Z " transform="matrix(-0.5133420825004578, 0, 0, 0.8084127306938171, 152.85, -68)"/>
  <path id="ID0.46974487602710724" fill="#FF6161" stroke="#000000" stroke-width="2" stroke-linecap="round" d="M 211.400 146.900 L 195.400 146.150 L 195.600 184.100 C 195.600 187.250 195.600 185.750 195.500 186.550 C 195.500 187.250 195.300 188 195.400 188.650 C 195.500 189.150 195.700 189.500 195.800 189.900 C 195.900 190.350 195.800 190.850 195.900 191.250 C 196 191.950 196 192.800 196.600 193.200 C 197.100 193.600 198.300 193.850 198.500 193.100 C 199.300 190.300 198.800 184.100 199.200 184.300 C 199.200 184.300 198.900 186.600 199 187.700 C 199 188.400 199.200 189.100 199.500 189.700 C 199.700 190.350 200 191 200.500 191.450 C 201 192 201.600 192.800 202.300 192.600 C 202.900 192.450 203 191.400 203.200 190.700 C 203.500 189.400 203.500 188.050 203.700 186.700 C 203.700 186 204 184.600 203.800 184.600 C 203.800 184.600 204.200 187.500 204.200 188.900 C 204.100 189.700 203.600 190.500 203.800 191.200 C 203.900 191.800 204.300 192.500 205 192.700 C 205.300 192.800 205.800 192.300 206 191.900 C 206.400 191.400 206.355 190.571 206.500 189.900 C 206.852 188.275 207.143 185.667 207.250 185 C 207.487 184.593 207.266 186.596 207.300 187.400 C 207.368 188.971 207 190.700 207.800 192.100 C 208.100 192.700 209.300 192.300 209.800 191.800 C 210.300 191.300 210.400 189.700 210.500 189.100 C 210.500 189.100 210.700 189.400 210.800 189.600 C 210.700 189.700 210.300 190.300 210.500 189.800 C 211.200 188 211.200 185.300 212.700 184.300 C 213.400 183.800 214 185.700 214.700 186.300 C 215.700 187.200 216.600 188.800 217.900 188.900 C 218.500 189 218.500 187.700 218.700 186.900 C 218.800 186.300 218.700 185.600 218.500 184.900 C 218.300 184.200 218.100 183.500 217.700 182.900 C 217.200 182.400 216.500 182.100 215.900 181.700 C 215.200 181.300 214.400 181.200 214 180.600 C 213.300 179.400 212.971 183.949 212.700 176.700 L 211.500 147.250 Z " transform="matrix(0.5133420825004578, 0, 0, 0.8084127306938171, -98.75, -67.2)"/>
  <path id="ID0.11437066178768873" fill="#FF0000" stroke="#000000" stroke-width="2" stroke-linecap="round" d="M 246.500 158.500 C 249.475 158.562 252.603 159.671 255.690 159.913 C 261.562 160.374 267.937 158.403 273.500 160.500 C 275.652 161.312 275.156 164.970 275.150 167.250 C 275.141 170.017 275.451 173.486 273.400 175.400 C 271.466 177.141 267.940 177.108 265.500 176.100 C 263.342 175.208 262.755 172.309 261.150 170.600 C 260.511 169.797 259.245 167.637 258.800 168.600 C 257.378 171.693 257.934 175.321 257.550 178.750 C 256.831 185.179 258.633 192.327 255.690 198.087 C 254.268 200.871 249.662 200.020 246.550 199.950 C 243.406 200.020 238.677 200.946 237.310 198.087 C 234.409 192.023 236.428 184.651 235.900 177.950 C 235.645 174.710 235.977 171.150 234.900 168 C 234.629 167.207 233.049 167.871 232.800 168.500 C 231.866 170.967 233.570 174.475 231.750 176.250 C 229.966 177.988 226.154 178.558 224.300 176.900 C 222.174 175.012 222.920 171.288 222.900 168.400 C 222.921 165.717 221.964 161.800 224.300 160.400 C 228.018 158.173 233.015 160.276 237.310 159.913 C 240.395 159.653 243.285 158.562 246.500 158.500 Z " transform="matrix(1, 0, 0, 1, -221.5, -112.5)"/>
  <path id="ID0.1325888242572546" fill="#FF6161" stroke="#000000" stroke-width="2" stroke-linecap="round" d="M 248 159 C 252.828 159 257.203 160.961 260.371 164.129 C 263.539 167.297 265.500 171.672 265.500 176.500 C 265.500 181.328 263.539 185.703 260.371 188.871 C 257.203 192.039 252.828 194 248 194 C 243.172 194 238.797 192.039 235.629 188.871 C 232.461 185.703 230.500 181.328 230.500 176.500 C 230.500 171.672 232.461 167.297 235.629 164.129 C 238.797 160.961 243.172 159 248 159 Z " transform="matrix(1, 0, 0, 1, -222.5, -151)"/>
  <g id="ID0.584524970036" transform="matrix(1, 0, 0, 1, 0, 3)">
    <path id="ID0.6353883007541299" fill="#FFFFFF" stroke="none" d="M 231.750 121.250 C 232.302 121.250 232.802 121.474 233.164 121.836 C 233.526 122.198 233.750 122.698 233.750 123.250 C 233.750 123.802 233.526 124.302 233.164 124.664 C 232.802 125.026 232.302 125.250 231.750 125.250 C 231.198 125.250 230.698 125.026 230.336 124.664 C 229.974 124.302 229.750 123.802 229.750 123.250 C 229.750 122.698 229.974 122.198 230.336 121.836 C 230.698 121.474 231.198 121.250 231.750 121.250 Z " transform="matrix(1.8856490850448608, 0, 0, 1.8856490850448608, -419.8, -216.7)"/>
    <path id="ID0.3020893633365631" fill="#000000" stroke="#00FFFF" stroke-width="2" d="M 232.500 122 C 232.983 122 233.420 122.196 233.737 122.513 C 234.054 122.830 234.250 123.267 234.250 123.750 C 234.250 124.233 234.054 124.670 233.737 124.987 C 233.420 125.304 232.983 125.500 232.500 125.500 C 232.017 125.500 231.580 125.304 231.263 124.987 C 230.946 124.670 230.750 124.233 230.750 123.750 C 230.750 123.267 230.946 122.830 231.263 122.513 C 231.580 122.196 232.017 122 232.500 122 Z " transform="matrix(1, 0, 0, 1, -215.25, -108)"/>
  </g>
  <g id="ID0.584524970036" transform="matrix(1, 0, 0, 1, 0, 3)">
    <path id="ID0.6353883007541299" fill="#FFFFFF" stroke="none" d="M 231.750 121.250 C 232.302 121.250 232.802 121.474 233.164 121.836 C 233.526 122.198 233.750 122.698 233.750 123.250 C 233.750 123.802 233.526 124.302 233.164 124.664 C 232.802 125.026 232.302 125.250 231.750 125.250 C 231.198 125.250 230.698 125.026 230.336 124.664 C 229.974 124.302 229.750 123.802 229.750 123.250 C 229.750 122.698 229.974 122.198 230.336 121.836 C 230.698 121.474 231.198 121.250 231.750 121.250 Z " transform="matrix(1.8856490850448608, 0, 0, 1.8856490850448608, -404, -216.7)"/>
    <path id="ID0.3020893633365631" fill="#000000" stroke="#00FFFF" stroke-width="2" d="M 232.500 122 C 232.983 122 233.420 122.196 233.737 122.513 C 234.054 122.830 234.250 123.267 234.250 123.750 C 234.250 124.233 234.054 124.670 233.737 124.987 C 233.420 125.304 232.983 125.500 232.500 125.500 C 232.017 125.500 231.580 125.304 231.263 124.987 C 230.946 124.670 230.750 124.233 230.750 123.750 C 230.750 123.267 230.946 122.830 231.263 122.513 C 231.580 122.196 232.017 122 232.500 122 Z " transform="matrix(1, 0, 0, 1, -199.45, -108)"/>
  </g>
  <path id="ID0.06787771452218294" fill="none" stroke="#000000" stroke-width="2" stroke-linecap="round" d="M 239 128.500 C 238.759 128.850 238.613 129.944 238.300 130.750 C 238.107 131.292 238.133 131.923 238 132.500 C 237.870 133.067 237.875 133.631 237.500 134 C 237.089 134.402 236.361 134.235 236 134.650 C 235.553 135.043 235.229 135.656 235.250 136.250 C 235.272 136.883 235.484 137.630 236 138 C 236.524 138.375 237.333 138.037 238 138.050 C 238.651 138.067 239.304 138.030 239.950 137.950 C 241.124 137.819 242.657 138.228 243.450 137.350 C 244.072 136.663 243.492 135.422 243.050 134.650 C 242.628 133.910 241.371 133.889 241.050 133.150 C 240.563 132.033 241.131 130.692 240.750 129.500 C 240.587 128.992 239.976 128.276 239.500 128.500 Z " transform="matrix(1, 0, 0, 1, -215, -105)"/>
  <path id="ID0.8911727028898895" fill="#000000" stroke="none" d="M 237.475 135.750 C 237.634 135.750 237.777 135.814 237.881 135.919 C 237.986 136.023 238.050 136.166 238.050 136.325 C 238.050 136.484 237.986 136.627 237.881 136.731 C 237.777 136.836 237.634 136.900 237.475 136.900 C 237.316 136.900 237.173 136.836 237.069 136.731 C 236.964 136.627 236.900 136.484 236.900 136.325 C 236.900 136.166 236.964 136.023 237.069 135.919 C 237.173 135.814 237.316 135.750 237.475 135.750 Z " transform="matrix(1, 0, 0, 1, -215, -105)"/>
  <path id="ID0.6653789943084121" fill="#FF6161" stroke="#000000" stroke-width="2" stroke-linecap="round" d="M 237.300 147.750 C 237.935 147.330 238.820 147.900 239.650 148 C 240.321 148.083 240.982 148.244 241.650 148.350 C 242.031 148.411 242.800 148.500 242.800 148.500 C 242.500 148.500 244.200 149.400 245 150 C 245.600 150.400 246.600 151.100 246.500 151.500 C 246.400 151.850 245.300 151.500 244.500 151.500 C 241.200 151.500 234.500 151.500 234.500 151.500 C 233.500 152 233.700 151.150 234 151 C 234.600 150.600 235.506 150.973 236 150.500 C 236.698 149.811 236.488 148.330 237.300 147.750 Z " transform="matrix(1, 0, 0, 1, -215, -105)"/>
  <path id="ID0.8911727028898895" fill="#000000" stroke="none" d="M 237.475 135.750 C 237.634 135.750 237.777 135.814 237.881 135.919 C 237.986 136.023 238.050 136.166 238.050 136.325 C 238.050 136.484 237.986 136.627 237.881 136.731 C 237.777 136.836 237.634 136.900 237.475 136.900 C 237.316 136.900 237.173 136.836 237.069 136.731 C 236.964 136.627 236.900 136.484 236.900 136.325 C 236.900 136.166 236.964 136.023 237.069 135.919 C 237.173 135.814 237.316 135.750 237.475 135.750 Z " transform="matrix(1, 0, 0, 1, -211.25, -105.25)"/>
  <path id="ID0.5940648610703647" fill="none" stroke="#000000" stroke-width="2" stroke-linecap="round" d="M 234.500 143 C 234.107 142.944 234.208 143.049 234.250 143 C 234.093 142.934 233.998 142.693 234.250 142.750 C 235.231 142.951 236.231 143.138 237.200 143.500 C 237.833 143.739 238.420 144.229 239.100 144.250 C 240.609 144.297 242.113 143.916 243.600 143.700 C 244.149 143.605 245.046 143.739 245 143.750 C 245.032 143.588 244.124 143.121 243.550 143.150 C 242.104 143.195 240.652 143.609 239.200 143.550 C 237.636 143.489 236.053 143.211 234.500 143 Z " transform="matrix(1, 0, 0, 1, -215, -105)"/>
  <path id="ID0.9686796963214874" fill="#0033CC" stroke="#000000" stroke-width="2" stroke-linecap="round" d="M 239.150 220.500 L 232.200 220.500 L 232.200 192.750 L 248.750 192.200 L 248.950 220.500 L 242.600 220.500 L 242.650 198.350 L 239.150 198.350 L 239.150 220.500 Z " transform="matrix(1, 0, 0, 1, -215, -105)"/>
  <path id="ID0.7304845196194947" fill="#663B00" stroke="none" stroke-linecap="round" d="M 236.900 222.250 C 238.126 222.329 239.478 221.660 240.700 222.150 C 241.424 222.451 241.028 223.692 241.150 224.500 C 241.319 225.262 242.033 226.209 241.570 226.852 C 240.419 228.455 239.036 230.720 237.150 230.750 C 235.184 230.720 234.040 228.275 232.980 226.852 C 232.454 226.149 232.308 225.181 232.300 224.300 C 232.261 223.485 232.089 222.307 232.800 222.050 C 234.057 221.608 235.488 222.295 236.900 222.250 Z " transform="matrix(1, 0, 0, 1, -216.15, -106)"/>
  <path id="ID0.7304845196194947" fill="#663B00" stroke="none" stroke-linecap="round" d="M 236.900 222.250 C 238.126 222.329 239.478 221.660 240.700 222.150 C 241.424 222.451 241.028 223.692 241.150 224.500 C 241.319 225.262 242.033 226.209 241.570 226.852 C 240.419 228.455 239.036 230.720 237.150 230.750 C 235.184 230.720 234.040 228.275 232.980 226.852 C 232.454 226.149 232.308 225.181 232.300 224.300 C 232.261 223.485 232.089 222.307 232.800 222.050 C 234.057 221.608 235.488 222.295 236.900 222.250 Z " transform="matrix(1, 0, 0, 1, -206.2, -106)"/>
  <path id="ID0.857995409052819" fill="none" stroke="#FF9400" stroke-width="2" stroke-linecap="round" d="M 239.750 110 C 238.748 111.500 237.678 110.870 236.750 111.250 C 233.882 112.423 231.479 114.534 228.750 116 C 226.978 116.952 224.417 117.333 223.250 118.500 C 222.792 118.958 224.710 119.250 225.500 119.250 C 226.290 119.250 226.997 118.738 227.750 118.500 C 230.161 117.739 234.552 116.209 235 116.250 C 235.448 116.291 232.011 117.941 230.500 118.750 C 229.680 119.190 228.817 119.554 228 120 C 226.069 121.053 223.456 122.475 222.250 123.250 C 221.775 123.555 223.793 122.666 224.500 122.250 C 225.218 121.828 225.809 121.306 226.500 120.750 C 229.265 118.524 231.855 116.054 234.750 114 C 237.032 112.380 242 109.494 242 109.750 C 242 110.006 234.722 116.190 234.750 116.500 C 234.778 116.810 239.760 113.846 242.250 112.500 C 242.873 112.164 243.966 111.397 244 111.500 C 244.034 111.603 243.099 112.771 242.500 113.250 C 241.831 113.785 239.985 114.588 240.250 114.500 C 240.515 114.412 242.790 113.410 244 112.750 C 244.629 112.407 246.268 111.500 245.750 111.500 C 244.395 111.500 241.703 112.841 240.250 112.750 C 239.703 112.716 241.872 111.555 241.750 111.250 C 241.628 110.945 240.421 111.500 239.750 111.500 Z " transform="matrix(1, 0, 0, 1, -215, -105)"/>
  <path id="ID0.3646508604288101" fill="none" stroke="#FF9400" stroke-width="2" stroke-linecap="round" d="M 247 117.250 C 247 117.250 245.526 118.135 244.750 118.500 C 244.106 118.803 243.442 119.087 242.750 119.250 C 242.016 119.423 241.254 119.478 240.500 119.500 C 238.336 119.562 236.165 119.500 234 119.500 C 233.334 119.500 232.665 119.542 232 119.500 C 231.330 119.458 230 119.250 230 119.250 " transform="matrix(1, 0, 0, 1, -215, -105)"/>
  <path id="ID0.8157026851549745" fill="none" stroke="#FF9400" stroke-width="2" stroke-linecap="round" d="M 242.750 117.500 C 242.750 117.500 243.562 118.952 243.750 119.750 C 243.903 120.398 243.750 121.750 243.750 121.750 " transform="matrix(1, 0, 0, 1, -215, -105)"/>
  <path id="ID0.7356466082856059" fill="none" stroke="#FF9400" stroke-width="2" stroke-linecap="round" d="M 241.750 108 C 241.841 108.713 241.785 110.030 242.750 111 C 246.498 114.769 250.650 118.250 254.750 121.750 C 255.750 122.600 257.350 123.700 256.500 122.750 C 253.050 118.850 249.600 114.900 245.750 111.500 C 244.700 110.600 241.800 110.200 242 110 C 242.150 109.750 245.500 109 246.750 110 C 250.650 113.100 256.500 121.450 256.500 121.500 C 256.500 121.500 250 113.950 246.750 110.250 C 245.900 109.300 244.600 108.200 245.250 108.750 C 247.800 110.800 250.900 112.550 253 115.250 C 255.600 118.600 260.250 126.300 259 126.500 C 257.700 126.650 250.500 119.400 246 116.250 C 244.300 115.050 241.800 113.900 240.500 113.500 C 239.950 113.300 241.500 114.700 242.250 115 C 244.050 115.700 248 116.300 248 116.500 C 248 116.650 244.150 116.800 242.250 116.750 C 238.050 116.550 232.600 116.150 229.750 115.750 C 228.650 115.550 232.750 115.350 234.250 115.500 C 237.500 115.700 244.400 116.400 244 116.750 C 243.550 117.050 235.300 117.400 231 118 C 229.900 118.100 229.550 118.350 229 118.750 C 228.400 119.100 227.950 119.750 227.500 120.250 C 227.300 120.400 227 120.750 227 120.750 C 237 106.500 238.164 107.722 237.250 108.500 C 233.593 111.613 229.083 113.607 225.250 116.500 C 224.292 117.223 223.582 117.978 224 118.500 C 224.582 119.228 226.171 119.188 227.250 119 C 228.206 118.834 228.891 117.952 229.750 117.500 C 230.476 117.118 231.297 116.922 232 116.500 C 233.802 115.419 236.111 114.766 237.250 113 C 238.019 111.809 237.894 109.850 237 108.750 C 236.368 107.972 234.888 108.505 234 109 C 230.450 110.980 225.424 114.102 224 116 C 223.293 116.942 227.738 115.602 229.500 115 C 234.591 113.262 243.115 109.887 244.500 109 C 245.616 108.286 238.479 109.782 235.750 111 C 233.696 111.917 229.547 115.477 230.500 115.250 C 231.643 114.978 239.135 110.397 241 109.750 Z " transform="matrix(1, 0, 0, 1, -215, -105)"/>
  <path id="ID0.9606746546924114" fill="none" stroke="#FF9400" stroke-width="2" stroke-linecap="round" d="M 225.500 118 C 225.500 118 221.826 123.838 220.500 127 C 220.169 127.790 221.864 126.353 222.250 125.750 C 223.234 124.212 224.919 121.658 224.500 120.750 C 224.177 120.051 221.422 121.297 220.750 122.500 C 219.244 125.198 218.688 129.054 218.500 131.500 C 218.438 132.304 219.816 129.919 220.250 129 C 221.906 125.490 223.809 122.015 224.750 118.250 C 224.985 117.309 223.356 118.627 222.750 119 C 222.249 119.309 221.500 120.250 221.500 120.250 " transform="matrix(1, 0, 0, 1, -215, -105)"/>
  <path id="ID0.35235996590927243" fill="none" stroke="#FF9400" stroke-width="2" stroke-linecap="round" d="M 257.750 122.500 C 257.750 122.500 259.061 125.180 259.750 126.500 C 260.060 127.095 260.481 127.635 260.750 128.250 C 261.067 128.974 261.277 129.742 261.500 130.500 C 261.694 131.159 261.984 132.516 262 132.500 C 262.015 132.485 261.975 130.970 261.750 130.250 C 261.550 129.609 261.113 129.065 260.750 128.500 C 260.363 127.898 259.880 126.533 259.500 126.750 C 259.005 127.033 259 128.569 259 129.500 C 259 129.948 259.500 130.750 259.500 130.750 " transform="matrix(1, 0, 0, 1, -215, -105)"/>
</svg>